<svg xmlns="http://www.w3.org/2000/svg" viewBox="0 0 512 512">
<defs><linearGradient id="g" x1="0" y1="0" x2="0" y2="1"><stop offset="0" stop-color="#3987e5"/><stop offset="1" stop-color="#0d2042"/></linearGradient></defs>
<rect width="512" height="512" rx="112" fill="url(#g)"/>
<path d="M106 170 L106 80 L196 150 Z M406 170 L406 80 L316 150 Z" fill="#fcfaf5"/>
<rect x="106" y="125" width="300" height="315" rx="140" fill="#fcfaf5"/>
<circle cx="176" cy="235" r="75" fill="#102240"/><circle cx="176" cy="235" r="62" fill="#fcfaf5"/><circle cx="176" cy="235" r="26" fill="#102240"/>
<circle cx="336" cy="235" r="75" fill="#102240"/><circle cx="336" cy="235" r="62" fill="#fab219"/><circle cx="336" cy="235" r="50" fill="none" stroke="#c98500" stroke-width="5"/>
<text x="336" y="258" font-family="system-ui,sans-serif" font-size="64" font-weight="700" fill="#7a4f00" text-anchor="middle">$</text>
<path d="M236 315 L276 315 L256 358 Z" fill="#fab219"/>
<g fill="#3987e5" opacity="0.38">
<rect x="145" y="365" width="32" height="53" rx="6"/><rect x="193" y="350" width="32" height="68" rx="6"/><rect x="240" y="380" width="32" height="38" rx="6"/><rect x="288" y="360" width="32" height="58" rx="6"/><rect x="335" y="388" width="32" height="30" rx="6"/>
</g>
</svg>
